<svg width="1728" height="1991" viewBox="0 0 1728 1991" fill="none" xmlns="http://www.w3.org/2000/svg">
<mask id="path-1-outside-1_303_79" maskUnits="userSpaceOnUse" x="1.90735e-05" y="1507.87" width="1728" height="484" fill="black">
<rect fill="white" x="1.90735e-05" y="1507.87" width="1728" height="484"/>
<path fill-rule="evenodd" clip-rule="evenodd" d="M888.295 1516.12C888.232 1516.26 869.888 1619.87 847.532 1746.37L806.884 1976.37L831.8 1976.64C845.503 1976.79 856.955 1976.67 857.246 1976.38C857.537 1976.09 864.602 1937.49 872.946 1890.61C881.291 1843.73 888.897 1802.7 889.848 1799.43C899.173 1767.39 935.053 1736.52 969.454 1730.93C1001.33 1725.76 1023.93 1740.37 1031.99 1771.37C1033.37 1776.65 1033.81 1782.06 1033.8 1793.37C1033.79 1808.26 1033.68 1809.01 1019.09 1891.03C1011 1936.48 1004.38 1974.4 1004.38 1975.29C1004.38 1976.75 1006.93 1976.88 1029.55 1976.64L1054.72 1976.37L1070.99 1883.87C1079.95 1833 1087.77 1786.98 1088.37 1781.6C1091.63 1752.52 1080.29 1723.23 1058.95 1705.63C1051.74 1699.68 1039.86 1693.12 1030.65 1690C1005.68 1681.55 969.166 1683.74 932.149 1695.92C915.326 1701.46 910.117 1702.07 908.328 1698.73C906.925 1696.11 905.388 1705.81 923.341 1603.92C931.622 1556.92 938.397 1517.89 938.397 1517.17C938.397 1516.14 933.227 1515.87 913.404 1515.87C899.657 1515.87 888.358 1515.99 888.295 1516.12ZM162.091 1685.94C151.955 1687.31 135.398 1691.57 125.587 1695.34C67.5199 1717.66 23.4859 1768.74 10.4772 1828.87C7.41592 1843.03 7.13599 1873.74 9.95028 1886.87C18.0423 1924.67 39.4359 1953.75 71.133 1970.05C88.6466 1979.06 105.715 1982.97 127.678 1983C166.821 1983.07 197.04 1970.85 241.475 1936.99L244.88 1934.4L244.334 1955.64L243.787 1976.87H269.205C288.67 1976.87 294.709 1976.58 294.998 1975.62C295.462 1974.09 298.408 1860.09 299.205 1812.87C299.743 1780.98 299.637 1777.66 297.801 1768.86C289.443 1728.83 256.493 1698.53 209.579 1687.72C199.645 1685.44 173.18 1684.44 162.091 1685.94ZM1597.23 1685.55C1589.44 1686.33 1575.44 1689.18 1566.37 1691.82C1540.18 1699.45 1519.9 1710.74 1502.3 1727.49C1491.63 1737.65 1484.82 1746.4 1479.19 1757.17C1470.97 1772.89 1472.67 1764.85 1449.42 1897.87L1435.7 1976.37L1460.63 1976.64C1474.34 1976.79 1485.8 1976.67 1486.09 1976.38C1486.39 1976.08 1493.26 1938.39 1501.38 1892.61C1509.49 1846.83 1516.84 1806.07 1517.7 1802.03C1522.77 1778.46 1541.01 1756.48 1565.79 1744.08C1580.94 1736.5 1596.9 1733.34 1611.91 1734.95C1626.48 1736.51 1635.62 1740.58 1645.6 1749.91C1650.73 1754.71 1653.01 1757.89 1656.58 1765.17C1662.13 1776.52 1663.63 1783.36 1663.54 1796.87C1663.47 1805.77 1661.22 1819.99 1648.83 1889.87C1640.78 1935.25 1633.97 1973.39 1633.69 1974.62L1633.19 1976.87H1658.98H1684.77L1702.03 1878.12C1720.89 1770.19 1721.03 1769.06 1717.27 1753.37C1713.79 1738.88 1708.72 1729.7 1697.77 1718.09C1677.96 1697.08 1645.27 1684.54 1611.6 1685.03C1605.62 1685.12 1599.16 1685.35 1597.23 1685.55ZM497.133 1687.43C481.479 1690.54 465.859 1697.43 447.02 1709.52C428.101 1721.67 427.918 1721.67 428.865 1710.1C429.212 1705.85 430.136 1700.01 430.919 1697.12L432.343 1691.87H406.939C392.968 1691.87 381.512 1691.99 381.483 1692.12C381.454 1692.26 370.085 1756.27 356.218 1834.37L331.006 1976.37L355.921 1976.64C369.623 1976.79 381.069 1976.68 381.354 1976.39C381.639 1976.1 388.298 1939.32 396.151 1894.66C404.3 1848.3 411.565 1809.78 413.077 1804.91C420.707 1780.32 431.27 1766.17 452.794 1751.69C468.888 1740.87 480.614 1736.87 496.322 1736.87C502.988 1736.87 505.512 1736.53 505.532 1735.62C505.546 1734.94 507.491 1723.46 509.851 1710.12L514.144 1685.87L509.076 1685.97C506.287 1686.02 500.913 1686.68 497.133 1687.43ZM647.986 1688.02C632.578 1690 612.233 1696.44 596.69 1704.27C579.558 1712.9 565.769 1722.76 551.098 1736.86C523.797 1763.11 506.202 1793.84 498.323 1829.03C496.289 1838.12 496.015 1841.92 496.069 1860.37C496.126 1879.79 496.328 1882.11 498.753 1891.1C504.813 1913.55 513.571 1929.48 528.446 1945.11C553.024 1970.93 585.526 1983.34 623.883 1981.55C699.101 1978.05 769.187 1916.71 785.466 1840.14C788.485 1825.93 789.156 1803.59 787.003 1788.87C780.089 1741.61 749.193 1705 705.456 1692.25C688.396 1687.28 666.424 1685.66 647.986 1688.02ZM1276.83 1688.02C1261.42 1690 1241.08 1696.44 1225.53 1704.27C1208.4 1712.9 1194.61 1722.76 1179.94 1736.86C1152.64 1763.11 1135.05 1793.84 1127.17 1829.03C1125.13 1838.12 1124.86 1841.92 1124.91 1860.37C1124.97 1879.79 1125.17 1882.11 1127.6 1891.1C1133.66 1913.55 1142.41 1929.48 1157.29 1945.11C1181.87 1970.93 1214.37 1983.34 1252.73 1981.55C1327.94 1978.05 1398.03 1916.71 1414.31 1840.14C1417.33 1825.93 1418 1803.59 1415.85 1788.87C1408.93 1741.61 1378.04 1705 1334.3 1692.25C1317.24 1687.28 1295.27 1685.66 1276.83 1688.02ZM153.698 1734.36C129.845 1739.75 109.036 1751.29 91.5849 1768.81C49.4714 1811.1 42.7181 1873.62 76.3397 1909.95C85.8893 1920.26 99.9988 1928.48 115.103 1932.51C120.71 1934 125.481 1934.36 139.097 1934.3C154.543 1934.22 156.914 1933.97 165.091 1931.52C207.058 1918.92 240 1884.94 251.796 1842.07C253.582 1835.58 253.919 1831.55 253.948 1816.37C253.98 1799.56 253.803 1797.79 251.264 1789.57C242.898 1762.46 225.009 1744.05 199.082 1735.87C189.933 1732.98 163.675 1732.11 153.698 1734.36ZM641.097 1736.43C597.297 1745.13 558.755 1781.06 547.05 1824.09C540.612 1847.76 542.083 1869.96 551.377 1889.37C566.179 1920.29 597.527 1936.77 635.683 1933.7C648.222 1932.69 660.746 1928.99 673.963 1922.38C687.489 1915.62 696.37 1909.13 707.549 1897.83C730.141 1875 742.446 1846.4 742.446 1816.72C742.446 1775.81 719.144 1745.12 681.462 1736.41C673.297 1734.52 650.644 1734.53 641.097 1736.43ZM1269.94 1736.43C1226.14 1745.13 1187.6 1781.06 1175.89 1824.09C1169.45 1847.76 1170.93 1869.96 1180.22 1889.37C1195.02 1920.29 1226.37 1936.77 1264.53 1933.7C1277.06 1932.69 1289.59 1928.99 1302.81 1922.38C1316.33 1915.62 1325.21 1909.13 1336.39 1897.83C1358.98 1875 1371.29 1846.4 1371.29 1816.72C1371.29 1775.81 1347.99 1745.12 1310.3 1736.41C1302.14 1734.52 1279.49 1734.53 1269.94 1736.43Z"/>
</mask>
<path fill-rule="evenodd" clip-rule="evenodd" d="M888.295 1516.12C888.232 1516.26 869.888 1619.87 847.532 1746.37L806.884 1976.37L831.8 1976.64C845.503 1976.79 856.955 1976.67 857.246 1976.38C857.537 1976.09 864.602 1937.49 872.946 1890.61C881.291 1843.73 888.897 1802.7 889.848 1799.43C899.173 1767.39 935.053 1736.52 969.454 1730.93C1001.33 1725.76 1023.93 1740.37 1031.99 1771.37C1033.37 1776.65 1033.81 1782.06 1033.8 1793.37C1033.79 1808.26 1033.68 1809.01 1019.09 1891.03C1011 1936.48 1004.38 1974.4 1004.38 1975.29C1004.38 1976.75 1006.93 1976.88 1029.55 1976.64L1054.72 1976.37L1070.99 1883.87C1079.95 1833 1087.77 1786.98 1088.37 1781.6C1091.63 1752.52 1080.29 1723.23 1058.95 1705.63C1051.74 1699.68 1039.86 1693.12 1030.65 1690C1005.68 1681.55 969.166 1683.74 932.149 1695.92C915.326 1701.46 910.117 1702.07 908.328 1698.73C906.925 1696.11 905.388 1705.81 923.341 1603.92C931.622 1556.92 938.397 1517.89 938.397 1517.17C938.397 1516.14 933.227 1515.87 913.404 1515.87C899.657 1515.87 888.358 1515.99 888.295 1516.12ZM162.091 1685.94C151.955 1687.31 135.398 1691.57 125.587 1695.34C67.5199 1717.66 23.4859 1768.74 10.4772 1828.87C7.41592 1843.03 7.13599 1873.74 9.95028 1886.87C18.0423 1924.67 39.4359 1953.75 71.133 1970.05C88.6466 1979.06 105.715 1982.97 127.678 1983C166.821 1983.07 197.04 1970.85 241.475 1936.99L244.88 1934.4L244.334 1955.64L243.787 1976.87H269.205C288.67 1976.87 294.709 1976.58 294.998 1975.62C295.462 1974.09 298.408 1860.09 299.205 1812.87C299.743 1780.98 299.637 1777.66 297.801 1768.86C289.443 1728.83 256.493 1698.53 209.579 1687.72C199.645 1685.44 173.18 1684.44 162.091 1685.94ZM1597.23 1685.55C1589.44 1686.33 1575.44 1689.18 1566.37 1691.82C1540.18 1699.45 1519.9 1710.74 1502.3 1727.49C1491.63 1737.65 1484.82 1746.4 1479.19 1757.17C1470.97 1772.89 1472.67 1764.85 1449.42 1897.87L1435.7 1976.37L1460.63 1976.64C1474.34 1976.79 1485.8 1976.67 1486.09 1976.38C1486.39 1976.08 1493.26 1938.39 1501.38 1892.61C1509.49 1846.83 1516.84 1806.07 1517.7 1802.03C1522.77 1778.46 1541.01 1756.48 1565.79 1744.08C1580.94 1736.5 1596.9 1733.34 1611.91 1734.95C1626.48 1736.51 1635.62 1740.58 1645.6 1749.91C1650.73 1754.71 1653.01 1757.89 1656.58 1765.17C1662.13 1776.52 1663.63 1783.36 1663.54 1796.87C1663.47 1805.77 1661.22 1819.99 1648.83 1889.87C1640.78 1935.25 1633.97 1973.39 1633.69 1974.62L1633.19 1976.87H1658.98H1684.77L1702.03 1878.12C1720.89 1770.19 1721.03 1769.06 1717.27 1753.37C1713.79 1738.88 1708.72 1729.7 1697.77 1718.09C1677.96 1697.08 1645.27 1684.54 1611.6 1685.03C1605.62 1685.12 1599.16 1685.35 1597.23 1685.55ZM497.133 1687.43C481.479 1690.54 465.859 1697.43 447.02 1709.52C428.101 1721.67 427.918 1721.67 428.865 1710.1C429.212 1705.85 430.136 1700.01 430.919 1697.12L432.343 1691.87H406.939C392.968 1691.87 381.512 1691.99 381.483 1692.12C381.454 1692.26 370.085 1756.27 356.218 1834.37L331.006 1976.37L355.921 1976.64C369.623 1976.79 381.069 1976.68 381.354 1976.39C381.639 1976.1 388.298 1939.32 396.151 1894.66C404.3 1848.3 411.565 1809.78 413.077 1804.91C420.707 1780.32 431.27 1766.17 452.794 1751.69C468.888 1740.87 480.614 1736.87 496.322 1736.87C502.988 1736.87 505.512 1736.53 505.532 1735.62C505.546 1734.94 507.491 1723.46 509.851 1710.12L514.144 1685.87L509.076 1685.97C506.287 1686.02 500.913 1686.68 497.133 1687.43ZM647.986 1688.02C632.578 1690 612.233 1696.44 596.69 1704.27C579.558 1712.9 565.769 1722.76 551.098 1736.86C523.797 1763.11 506.202 1793.84 498.323 1829.03C496.289 1838.12 496.015 1841.92 496.069 1860.37C496.126 1879.79 496.328 1882.11 498.753 1891.1C504.813 1913.55 513.571 1929.48 528.446 1945.11C553.024 1970.93 585.526 1983.34 623.883 1981.55C699.101 1978.05 769.187 1916.71 785.466 1840.14C788.485 1825.93 789.156 1803.59 787.003 1788.87C780.089 1741.61 749.193 1705 705.456 1692.25C688.396 1687.28 666.424 1685.66 647.986 1688.02ZM1276.83 1688.02C1261.42 1690 1241.08 1696.44 1225.53 1704.27C1208.4 1712.9 1194.61 1722.76 1179.94 1736.86C1152.64 1763.11 1135.05 1793.84 1127.17 1829.03C1125.13 1838.12 1124.86 1841.92 1124.91 1860.37C1124.97 1879.79 1125.17 1882.11 1127.6 1891.1C1133.66 1913.55 1142.41 1929.48 1157.29 1945.11C1181.87 1970.93 1214.37 1983.34 1252.73 1981.55C1327.94 1978.05 1398.03 1916.71 1414.31 1840.14C1417.33 1825.93 1418 1803.59 1415.85 1788.87C1408.93 1741.61 1378.04 1705 1334.3 1692.25C1317.24 1687.28 1295.27 1685.66 1276.83 1688.02ZM153.698 1734.36C129.845 1739.75 109.036 1751.29 91.5849 1768.81C49.4714 1811.1 42.7181 1873.62 76.3397 1909.95C85.8893 1920.26 99.9988 1928.48 115.103 1932.51C120.71 1934 125.481 1934.36 139.097 1934.3C154.543 1934.22 156.914 1933.97 165.091 1931.52C207.058 1918.92 240 1884.94 251.796 1842.07C253.582 1835.58 253.919 1831.55 253.948 1816.37C253.98 1799.56 253.803 1797.79 251.264 1789.57C242.898 1762.46 225.009 1744.05 199.082 1735.87C189.933 1732.98 163.675 1732.11 153.698 1734.36ZM641.097 1736.43C597.297 1745.13 558.755 1781.06 547.05 1824.09C540.612 1847.76 542.083 1869.96 551.377 1889.37C566.179 1920.29 597.527 1936.77 635.683 1933.7C648.222 1932.69 660.746 1928.99 673.963 1922.38C687.489 1915.62 696.37 1909.13 707.549 1897.83C730.141 1875 742.446 1846.4 742.446 1816.72C742.446 1775.81 719.144 1745.12 681.462 1736.41C673.297 1734.52 650.644 1734.53 641.097 1736.43ZM1269.94 1736.43C1226.14 1745.13 1187.6 1781.06 1175.89 1824.09C1169.45 1847.76 1170.93 1869.96 1180.22 1889.37C1195.02 1920.29 1226.37 1936.77 1264.53 1933.7C1277.06 1932.69 1289.59 1928.99 1302.81 1922.38C1316.33 1915.62 1325.21 1909.13 1336.39 1897.83C1358.98 1875 1371.29 1846.4 1371.29 1816.72C1371.29 1775.81 1347.99 1745.12 1310.3 1736.41C1302.14 1734.52 1279.49 1734.53 1269.94 1736.43Z" fill="white"/>
<path fill-rule="evenodd" clip-rule="evenodd" d="M888.295 1516.12C888.232 1516.26 869.888 1619.87 847.532 1746.37L806.884 1976.37L831.8 1976.64C845.503 1976.79 856.955 1976.67 857.246 1976.38C857.537 1976.09 864.602 1937.49 872.946 1890.61C881.291 1843.73 888.897 1802.7 889.848 1799.43C899.173 1767.39 935.053 1736.52 969.454 1730.93C1001.33 1725.76 1023.93 1740.37 1031.99 1771.37C1033.37 1776.65 1033.81 1782.06 1033.8 1793.37C1033.79 1808.26 1033.68 1809.01 1019.09 1891.03C1011 1936.48 1004.38 1974.4 1004.38 1975.29C1004.38 1976.75 1006.93 1976.88 1029.55 1976.64L1054.72 1976.37L1070.99 1883.87C1079.95 1833 1087.77 1786.98 1088.37 1781.6C1091.63 1752.52 1080.29 1723.23 1058.95 1705.63C1051.74 1699.68 1039.86 1693.12 1030.65 1690C1005.68 1681.55 969.166 1683.74 932.149 1695.92C915.326 1701.46 910.117 1702.07 908.328 1698.73C906.925 1696.11 905.388 1705.81 923.341 1603.92C931.622 1556.92 938.397 1517.89 938.397 1517.17C938.397 1516.14 933.227 1515.87 913.404 1515.87C899.657 1515.87 888.358 1515.99 888.295 1516.12ZM162.091 1685.94C151.955 1687.31 135.398 1691.57 125.587 1695.34C67.5199 1717.66 23.4859 1768.74 10.4772 1828.87C7.41592 1843.03 7.13599 1873.74 9.95028 1886.87C18.0423 1924.67 39.4359 1953.75 71.133 1970.05C88.6466 1979.06 105.715 1982.97 127.678 1983C166.821 1983.07 197.04 1970.85 241.475 1936.99L244.88 1934.4L244.334 1955.64L243.787 1976.87H269.205C288.67 1976.87 294.709 1976.58 294.998 1975.62C295.462 1974.09 298.408 1860.09 299.205 1812.87C299.743 1780.98 299.637 1777.66 297.801 1768.86C289.443 1728.83 256.493 1698.53 209.579 1687.72C199.645 1685.44 173.18 1684.44 162.091 1685.94ZM1597.23 1685.55C1589.44 1686.33 1575.44 1689.18 1566.37 1691.82C1540.18 1699.45 1519.9 1710.74 1502.3 1727.49C1491.63 1737.65 1484.82 1746.4 1479.19 1757.17C1470.97 1772.89 1472.67 1764.85 1449.42 1897.87L1435.7 1976.37L1460.63 1976.64C1474.34 1976.79 1485.8 1976.67 1486.09 1976.38C1486.39 1976.08 1493.26 1938.39 1501.38 1892.61C1509.49 1846.83 1516.84 1806.07 1517.7 1802.03C1522.77 1778.46 1541.01 1756.48 1565.79 1744.08C1580.94 1736.5 1596.9 1733.34 1611.91 1734.95C1626.48 1736.51 1635.62 1740.58 1645.6 1749.91C1650.73 1754.71 1653.01 1757.89 1656.58 1765.17C1662.13 1776.52 1663.63 1783.36 1663.54 1796.87C1663.47 1805.77 1661.22 1819.99 1648.83 1889.87C1640.78 1935.25 1633.97 1973.39 1633.69 1974.62L1633.19 1976.87H1658.98H1684.77L1702.03 1878.12C1720.89 1770.19 1721.03 1769.06 1717.27 1753.37C1713.79 1738.88 1708.72 1729.7 1697.77 1718.09C1677.96 1697.08 1645.27 1684.54 1611.6 1685.03C1605.62 1685.12 1599.16 1685.35 1597.23 1685.55ZM497.133 1687.43C481.479 1690.54 465.859 1697.43 447.02 1709.52C428.101 1721.67 427.918 1721.67 428.865 1710.1C429.212 1705.85 430.136 1700.01 430.919 1697.12L432.343 1691.87H406.939C392.968 1691.87 381.512 1691.99 381.483 1692.12C381.454 1692.26 370.085 1756.27 356.218 1834.37L331.006 1976.37L355.921 1976.64C369.623 1976.79 381.069 1976.68 381.354 1976.39C381.639 1976.1 388.298 1939.32 396.151 1894.66C404.3 1848.3 411.565 1809.78 413.077 1804.91C420.707 1780.32 431.27 1766.17 452.794 1751.69C468.888 1740.87 480.614 1736.87 496.322 1736.87C502.988 1736.87 505.512 1736.53 505.532 1735.62C505.546 1734.94 507.491 1723.46 509.851 1710.12L514.144 1685.87L509.076 1685.97C506.287 1686.02 500.913 1686.68 497.133 1687.43ZM647.986 1688.02C632.578 1690 612.233 1696.44 596.69 1704.27C579.558 1712.9 565.769 1722.76 551.098 1736.86C523.797 1763.11 506.202 1793.84 498.323 1829.03C496.289 1838.12 496.015 1841.92 496.069 1860.37C496.126 1879.79 496.328 1882.11 498.753 1891.1C504.813 1913.55 513.571 1929.48 528.446 1945.11C553.024 1970.93 585.526 1983.34 623.883 1981.55C699.101 1978.05 769.187 1916.71 785.466 1840.14C788.485 1825.93 789.156 1803.59 787.003 1788.87C780.089 1741.61 749.193 1705 705.456 1692.25C688.396 1687.28 666.424 1685.66 647.986 1688.02ZM1276.83 1688.02C1261.42 1690 1241.08 1696.44 1225.53 1704.27C1208.4 1712.9 1194.61 1722.76 1179.94 1736.86C1152.64 1763.11 1135.05 1793.84 1127.17 1829.03C1125.13 1838.12 1124.86 1841.92 1124.91 1860.37C1124.97 1879.79 1125.17 1882.11 1127.6 1891.1C1133.66 1913.55 1142.41 1929.48 1157.29 1945.11C1181.87 1970.93 1214.37 1983.34 1252.73 1981.55C1327.94 1978.05 1398.03 1916.71 1414.31 1840.14C1417.33 1825.93 1418 1803.59 1415.85 1788.87C1408.93 1741.61 1378.04 1705 1334.3 1692.25C1317.24 1687.28 1295.27 1685.66 1276.83 1688.02ZM153.698 1734.36C129.845 1739.75 109.036 1751.29 91.5849 1768.81C49.4714 1811.1 42.7181 1873.62 76.3397 1909.95C85.8893 1920.26 99.9988 1928.48 115.103 1932.51C120.71 1934 125.481 1934.36 139.097 1934.3C154.543 1934.22 156.914 1933.97 165.091 1931.52C207.058 1918.92 240 1884.94 251.796 1842.07C253.582 1835.58 253.919 1831.55 253.948 1816.37C253.98 1799.56 253.803 1797.79 251.264 1789.57C242.898 1762.46 225.009 1744.05 199.082 1735.87C189.933 1732.98 163.675 1732.11 153.698 1734.36ZM641.097 1736.43C597.297 1745.13 558.755 1781.06 547.05 1824.09C540.612 1847.76 542.083 1869.96 551.377 1889.37C566.179 1920.29 597.527 1936.77 635.683 1933.7C648.222 1932.69 660.746 1928.99 673.963 1922.38C687.489 1915.62 696.37 1909.13 707.549 1897.83C730.141 1875 742.446 1846.4 742.446 1816.72C742.446 1775.81 719.144 1745.12 681.462 1736.41C673.297 1734.52 650.644 1734.53 641.097 1736.43ZM1269.94 1736.43C1226.14 1745.13 1187.6 1781.06 1175.89 1824.09C1169.45 1847.76 1170.93 1869.96 1180.22 1889.37C1195.02 1920.29 1226.37 1936.77 1264.53 1933.7C1277.06 1932.69 1289.59 1928.99 1302.81 1922.38C1316.33 1915.62 1325.21 1909.13 1336.39 1897.83C1358.98 1875 1371.29 1846.4 1371.29 1816.72C1371.29 1775.81 1347.99 1745.12 1310.3 1736.41C1302.14 1734.52 1279.49 1734.53 1269.94 1736.43Z" stroke="white" stroke-width="16" mask="url(#path-1-outside-1_303_79)"/>
<rect x="215.099" width="1297.01" height="1297.01" rx="407.048" fill="white"/>
<path d="M626.968 242.327C683.599 231.139 741.347 258.042 766.139 307.161C774.357 323.445 774.73 325.318 774.73 350.388V376.598L804.186 377.862C828.177 378.892 837.74 380.499 855.733 386.522C920.682 408.263 1013.63 459.339 1076.65 507.916C1117.01 539.029 1133.37 586.012 1116.12 621.28C1107.35 639.191 1095.61 648.814 1029.16 692.553C966.949 733.503 944.186 753.457 934.375 775.646C924.448 798.089 918.167 825.781 908.706 888.801C905.469 910.362 902.439 922.535 899.24 926.848C892.848 935.459 875.444 945.826 861.009 949.618C839.97 955.146 840.844 959.764 838.838 832.491C836.754 700.253 835.438 707.946 865.249 678.142C876.217 667.179 899.923 646.733 917.935 632.702L950.682 607.192L905.662 590.736C838.541 566.202 831.986 563.319 813.23 550.081C812.805 549.778 815.843 542.825 819.98 534.63C824.119 526.431 827.505 518.897 827.505 517.888C827.505 516.879 821.154 522.141 813.39 529.586C790.757 551.284 758.025 599.127 746.153 607.192C737.213 613.265 719.53 662.792 656.519 650.57C593.985 638.442 568.299 636.902 547.676 640.066C534.801 642.042 525.782 645.966 520.823 648.635C518.916 649.661 516.325 648.278 516.325 646.112V628.526C515.529 616.879 522.463 604.071 531.879 599.78C536.703 597.584 541.577 594.183 558.143 594.183C584.045 594.183 570.029 596.204 621.423 590.362C676.466 584.105 684.715 528.435 688.976 522.721C693.494 516.666 736.062 438.49 738.133 432.444C739.059 429.743 727.237 439.915 711.861 455.046C678.062 488.313 675.106 490.643 654.364 500.349C624.553 514.298 593.679 512.331 568.299 494.869C556.966 487.071 547.677 474.064 547.677 465.991C547.677 459.987 552.473 457.054 566.086 454.739C588.338 450.956 606.451 443.134 618.916 431.928C637.478 415.242 642.061 404.916 642.125 379.669C642.186 356.35 638.083 342.849 630.935 342.849C628.452 342.85 599.731 349.477 567.112 357.577C534.49 365.677 506.291 372.305 504.445 372.305C499.793 372.301 512.586 337.681 524.465 318.126C547.853 279.623 587.831 250.062 626.968 242.327Z" fill="#262626"/>
<path d="M1130.5 689.658C1153.71 686.856 1181.03 688.928 1202.47 695.181C1258.58 711.537 1298.08 758.512 1306.89 818.765C1309.64 837.528 1308.8 865.725 1304.94 883.886C1284.38 980.573 1196.01 1058.09 1100.66 1062.53C1051.94 1064.8 1010.28 1048.98 978.79 1015.91C959.775 995.932 948.553 975.459 940.865 946.972C939.339 941.316 938.433 937.47 937.946 931.902C937.477 926.532 937.401 919.58 937.366 907.688C937.299 884.855 937.63 879.665 940.277 867.838L940.754 865.757C950.935 822.147 973.029 784.024 1006.88 751.48V751.479C1025.33 733.739 1042.77 721.261 1064.4 710.364L1066.26 709.441C1085.65 699.963 1110.34 692.237 1129.4 689.795L1130.5 689.658ZM1147.13 758.725C1137.51 758.73 1128.03 759.321 1122.7 760.381C1070.79 770.698 1024.95 813.426 1011.08 864.419C1003.45 892.492 1005.27 918.46 1016.06 941.012C1033.17 976.739 1069.43 996.129 1114.5 992.5C1129.13 991.322 1143.88 986.996 1159.64 979.116C1175.74 971.067 1186.19 963.435 1199.56 949.926L1200.81 948.646C1226.91 921.684 1240.96 888.324 1240.96 853.882C1240.96 806.21 1214.25 770.982 1171.13 760.56L1170.11 760.317C1165.75 759.31 1156.81 758.719 1147.13 758.725Z" fill="#262626" stroke="#262626" stroke-width="11.09"/>
<path d="M611.465 1056.53C618.716 1057.51 630.556 1057.65 641.898 1057.22C653.209 1056.8 664.755 1055.79 671.358 1054.27C730.21 1040.71 772.39 1002.42 783.111 951.065C785.501 939.617 785.591 934.891 784.938 896.168C784.199 852.37 781.619 760.465 780.424 718.868C780.04 705.548 764.543 698.673 754.342 707.063L713.053 741.024L712.358 740.494C657.595 698.771 619.585 683.172 570.215 683.254C542.657 683.299 520.964 688.232 498.742 699.658H498.741C458.479 720.362 431.437 757.292 421.255 804.847L421.085 805.671C419.36 814.338 418.646 827.762 418.766 840.956C418.89 854.603 419.913 868.723 421.899 877.904L422.288 879.665C439.025 954.086 493.737 1017.09 565.705 1044.75C578.058 1049.49 598.668 1054.8 611.465 1056.53V1056.53ZM629.839 987.974C619.311 988.323 609.177 987.909 603.689 986.783L603.173 986.672C575.105 980.333 550.648 966.774 530.088 946.131C480.128 895.968 473.206 823.096 511.631 781.582C522.497 769.841 538.763 760.319 556.3 755.639H556.301C562.364 754.02 567.53 753.566 584.128 753.643C593.611 753.687 598.753 753.79 602.748 754.217C606.57 754.625 609.407 755.338 614.281 756.801C663.63 771.611 702.433 811.602 716.329 862.102L716.679 863.413C718.348 869.841 718.724 874.678 718.757 892.002C718.777 902.348 718.726 907.703 718.324 911.722C717.944 915.52 717.247 918.147 715.727 923.071C706.027 954.499 685.489 975.541 655.67 984.954H655.669C650.871 986.469 640.74 987.612 629.839 987.974Z" fill="#262626" stroke="#262626" stroke-width="10.978"/>
</svg>
