<svg width="1728" height="484" viewBox="0 0 1728 484" fill="none" xmlns="http://www.w3.org/2000/svg">
<path fill-rule="evenodd" clip-rule="evenodd" d="M888.295 8.25C888.232 8.387 869.888 112 847.532 238.5L806.884 468.5L831.8 468.767C845.504 468.915 856.955 468.797 857.246 468.506C857.536 468.215 864.602 429.619 872.946 382.738C881.291 335.857 888.897 294.824 889.848 291.552C899.173 259.513 935.053 228.642 969.454 223.059C1001.33 217.886 1023.93 232.498 1031.99 263.5C1033.37 268.779 1033.81 274.188 1033.8 285.5C1033.79 300.384 1033.68 301.139 1019.09 383.151C1011 428.609 1004.38 466.529 1004.38 467.418C1004.38 468.871 1006.93 469.007 1029.55 468.767L1054.72 468.5L1070.99 376C1079.95 325.125 1087.77 279.103 1088.37 273.729C1091.63 244.65 1080.29 215.357 1058.95 197.754C1051.74 191.805 1039.86 185.247 1030.65 182.126C1005.68 173.672 969.166 175.868 932.149 188.05C915.326 193.586 910.117 194.2 908.328 190.856C906.925 188.234 905.388 197.939 923.341 96.048C931.622 49.05 938.397 10.012 938.397 9.298C938.397 8.269 933.227 8 913.404 8C899.657 8 888.358 8.113 888.295 8.25ZM162.091 178.065C151.955 179.434 135.398 183.699 125.587 187.469C67.5199 209.781 23.4859 260.863 10.4771 321C7.4159 335.154 7.13597 365.861 9.95026 379C18.0422 416.794 39.4359 445.877 71.133 462.176C88.6466 471.181 105.715 475.091 127.678 475.127C166.821 475.192 197.04 462.975 241.475 429.12L244.88 426.527L243.787 469H269.204C288.67 469 294.709 468.707 294.998 467.75C295.462 466.213 298.408 352.215 299.205 305C299.743 273.105 299.637 269.782 297.801 260.99C289.443 220.959 256.493 190.654 209.579 179.85C199.645 177.562 173.18 176.567 162.091 178.065ZM1597.23 177.673C1589.44 178.459 1575.44 181.305 1566.37 183.949C1540.18 191.577 1519.9 202.866 1502.3 219.617C1491.63 229.776 1484.82 238.525 1479.19 249.3C1470.97 265.016 1472.67 256.971 1449.42 390L1435.7 468.5L1460.63 468.767C1474.34 468.915 1485.8 468.795 1486.09 468.502C1486.39 468.208 1493.26 430.513 1501.38 384.734C1509.49 338.955 1516.84 298.193 1517.7 294.151C1522.77 270.587 1541.01 248.606 1565.79 236.206C1580.94 228.624 1596.9 225.466 1611.91 227.076C1626.48 228.64 1635.62 232.702 1645.6 242.04C1650.73 246.838 1653.01 250.011 1656.58 257.299C1662.13 268.643 1663.63 275.488 1663.54 289C1663.47 297.894 1661.22 312.116 1648.83 382C1640.78 427.375 1633.97 465.512 1633.69 466.75L1633.19 469H1684.77L1702.03 370.25C1720.89 262.317 1721.03 261.189 1717.27 245.5C1713.79 231.002 1708.72 221.823 1697.77 210.217C1677.96 189.204 1645.27 176.664 1611.6 177.16C1605.62 177.248 1599.16 177.479 1597.23 177.673ZM497.133 179.554C481.479 182.665 465.859 189.551 447.02 201.645C428.101 213.791 427.918 213.796 428.865 202.225C429.212 197.976 430.136 192.137 430.919 189.25L432.343 184H406.939C392.968 184 381.512 184.113 381.483 184.25C381.454 184.387 370.085 248.4 356.218 326.5L331.006 468.5L355.921 468.767C369.623 468.915 381.069 468.801 381.354 468.516C381.639 468.23 388.298 431.45 396.151 386.783C404.3 340.43 411.565 301.906 413.077 297.035C420.707 272.445 431.27 258.291 452.794 243.815C468.888 232.991 480.614 229 496.322 229C502.988 229 505.512 228.657 505.532 227.75C505.546 227.063 507.491 215.588 509.851 202.25L514.144 178L509.076 178.094C506.287 178.146 500.913 178.803 497.133 179.554ZM647.986 180.148C632.578 182.122 612.233 188.566 596.69 196.396C579.558 205.025 565.769 214.883 551.098 228.988C523.797 255.238 506.202 285.966 498.323 321.156C496.289 330.246 496.015 334.046 496.069 352.5C496.126 371.919 496.328 374.232 498.753 383.221C504.813 405.674 513.571 421.609 528.446 437.233C553.024 463.051 585.526 475.462 623.883 473.677C699.101 470.176 769.187 408.837 785.466 332.261C788.485 318.057 789.156 295.712 787.003 281C780.089 233.736 749.193 197.126 705.456 184.375C688.396 179.401 666.424 177.785 647.986 180.148ZM1276.83 180.148C1261.42 182.122 1241.08 188.566 1225.53 196.396C1208.4 205.025 1194.61 214.883 1179.94 228.988C1152.64 255.238 1135.05 285.966 1127.17 321.156C1125.13 330.246 1124.86 334.046 1124.91 352.5C1124.97 371.919 1125.17 374.232 1127.6 383.221C1133.66 405.674 1142.41 421.609 1157.29 437.233C1181.87 463.051 1214.37 475.462 1252.73 473.677C1327.94 470.176 1398.03 408.837 1414.31 332.261C1417.33 318.057 1418 295.712 1415.85 281C1408.93 233.736 1378.04 197.126 1334.3 184.375C1317.24 179.401 1295.27 177.785 1276.83 180.148ZM153.698 226.49C129.845 231.877 109.036 243.419 91.5849 260.94C49.4714 303.225 42.7181 365.747 76.3397 402.072C85.8893 412.39 99.9988 420.601 115.103 424.632C120.71 426.129 125.481 426.484 139.097 426.421C154.543 426.349 156.914 426.096 165.09 423.642C207.058 411.047 240 377.065 251.796 334.198C253.582 327.707 253.919 323.677 253.948 308.5C253.98 291.687 253.803 289.919 251.264 281.693C242.898 254.589 225.009 236.18 199.082 227.996C189.933 225.108 163.675 224.236 153.698 226.49ZM641.097 228.554C597.297 237.259 558.755 273.184 547.05 316.217C540.612 339.886 542.083 362.089 551.377 381.5C566.179 412.417 597.527 428.899 635.683 425.827C648.222 424.817 660.746 421.113 673.963 414.505C687.489 407.742 696.37 401.251 707.549 389.956C730.141 367.13 742.446 338.53 742.446 308.847C742.446 267.934 719.144 237.247 681.461 228.532C673.297 226.644 650.644 226.656 641.097 228.554ZM1269.94 228.554C1226.14 237.259 1187.6 273.184 1175.89 316.217C1169.45 339.886 1170.93 362.089 1180.22 381.5C1195.02 412.417 1226.37 428.899 1264.53 425.827C1277.06 424.817 1289.59 421.113 1302.81 414.505C1316.33 407.742 1325.21 401.251 1336.39 389.956C1358.98 367.13 1371.29 338.53 1371.29 308.847C1371.29 267.934 1347.99 237.247 1310.3 228.532C1302.14 226.644 1279.49 226.656 1269.94 228.554Z" fill="white"/>
<path d="M162.235 169.987C168.516 169.281 177.812 169.214 186.569 169.543C195.864 169.892 205.615 170.727 211.375 172.054C260.661 183.404 296.508 215.65 305.633 259.354C307.689 269.201 307.737 273.505 307.204 305.135C306.805 328.779 305.868 369.111 304.974 403.711C304.526 421.014 304.09 436.896 303.735 448.555C303.558 454.381 303.401 459.168 303.273 462.554C303.21 464.242 303.152 465.61 303.103 466.594C303.078 467.079 303.053 467.515 303.027 467.866C303.015 468.036 302.998 468.244 302.976 468.454C302.965 468.557 302.945 468.717 302.917 468.903C302.903 468.993 302.833 469.479 302.657 470.062L302.656 470.062C301.532 473.787 298.412 475.149 297.774 475.424C296.704 475.886 295.661 476.105 294.984 476.226C293.543 476.482 291.727 476.625 289.68 476.725C285.479 476.928 278.916 477 269.204 477H235.578L236.457 442.812C196.281 471.851 166.094 483.191 127.665 483.127C104.582 483.089 86.2404 478.94 67.4746 469.291C33.4471 451.794 10.674 420.59 2.12792 380.676L1.98045 379.964C0.491344 372.486 -0.0881856 361.183 0.0107279 350.308C0.113198 339.042 0.954702 327.185 2.65819 319.309L2.98241 317.838C16.9633 255.67 62.6386 203.086 122.718 180.001L123.71 179.626C134.159 175.741 150.589 171.546 161.02 170.137L162.235 169.987ZM646.969 172.213C666.447 169.717 689.53 171.398 707.694 176.694C754.62 190.375 787.58 229.674 794.919 279.842C797.205 295.47 796.512 318.771 793.291 333.925C776.298 413.859 703.307 477.988 624.255 481.668C584.416 483.522 550.052 470.796 523.891 444.034L522.651 442.749C506.787 426.085 497.408 408.942 491.029 385.306C489.771 380.642 488.974 377.289 488.553 372.468C488.206 368.499 488.117 363.559 488.081 355.952L488.068 352.523C488.014 333.934 488.28 329.402 490.517 319.409C498.756 282.607 517.18 250.503 545.554 223.222C560.766 208.597 575.203 198.261 593.091 189.251L594.629 188.488C610.668 180.645 631.073 174.249 646.969 172.213ZM1275.81 172.213C1295.29 169.717 1318.37 171.398 1336.54 176.694C1383.46 190.375 1416.42 229.674 1423.76 279.842C1426.05 295.47 1425.35 318.771 1422.13 333.925C1405.14 413.859 1332.15 477.988 1253.1 481.668C1213.26 483.522 1178.9 470.796 1152.73 444.034L1151.49 442.749C1135.63 426.085 1126.25 408.942 1119.87 385.306C1118.61 380.641 1117.82 377.289 1117.4 372.468C1117.05 368.499 1116.96 363.559 1116.92 355.952L1116.91 352.523C1116.86 333.934 1117.12 329.402 1119.36 319.409C1127.6 282.607 1146.02 250.503 1174.4 223.222C1189.61 208.597 1204.05 198.261 1221.93 189.251L1223.47 188.488C1239.51 180.645 1259.92 174.25 1275.81 172.213ZM1611.48 169.161C1646.43 168.646 1680.88 181.4 1702.57 203.661L1703.59 204.729L1704.69 205.898C1715.79 217.932 1721.34 228.181 1725.05 243.634C1725.99 247.575 1726.85 251.204 1727.12 255.99C1727.38 260.682 1727.06 266.207 1726.08 274.254C1724.12 290.252 1719.32 317.8 1709.91 371.627L1691.5 477H1623.2L1625.88 465.002C1625.89 464.949 1625.99 464.422 1626.22 463.176C1626.45 461.936 1626.77 460.174 1627.17 457.947C1627.97 453.495 1629.1 447.198 1630.47 439.52C1633.21 424.163 1636.93 403.288 1640.95 380.603C1653.44 310.203 1655.48 296.959 1655.54 288.944L1655.54 287.755C1655.54 281.922 1655.18 277.798 1654.36 274.051C1653.49 270.081 1652.01 266.166 1649.39 260.814C1646.19 254.267 1644.46 251.921 1640.14 247.882C1631.52 239.817 1624.03 236.423 1611.06 235.03C1597.75 233.603 1583.32 236.378 1569.37 243.36C1546.39 254.857 1530 275.015 1525.53 295.831C1524.8 299.209 1519.11 330.664 1512.25 369.228L1509.25 386.13C1505.2 409.028 1501.45 429.911 1498.67 445.11C1497.29 452.708 1496.14 458.899 1495.32 463.216C1494.92 465.37 1494.58 467.083 1494.34 468.28C1494.22 468.87 1494.12 469.383 1494.03 469.776C1493.99 469.96 1493.93 470.202 1493.87 470.441C1493.84 470.546 1493.77 470.776 1493.68 471.048C1493.64 471.174 1493.54 471.447 1493.39 471.778C1493.38 471.808 1492.88 473.021 1491.76 474.148L1491.74 474.168C1490.73 475.172 1489.71 475.652 1489.35 475.814C1488.87 476.028 1488.47 476.153 1488.24 476.219C1487.78 476.351 1487.39 476.419 1487.2 476.45C1486.79 476.517 1486.4 476.554 1486.15 476.575C1485.59 476.622 1484.92 476.656 1484.22 476.683C1482.78 476.737 1480.81 476.775 1478.48 476.8C1474.96 476.836 1470.51 476.841 1465.6 476.81L1460.54 476.767L1426.2 476.398L1441.54 388.623C1453.15 322.233 1458.57 290.766 1462.12 274.002C1463.9 265.593 1465.28 260.473 1466.87 256.337C1468.45 252.243 1470.22 249.184 1472.1 245.595C1478.21 233.897 1485.61 224.463 1496.79 213.822L1497.66 212.995C1516.09 195.716 1537.29 184.086 1564.13 176.269C1573.58 173.515 1588.06 170.558 1596.43 169.714L1596.43 169.713C1598.76 169.478 1605.57 169.248 1611.48 169.161ZM913.403 0C923.274 0 929.735 0.0649005 933.749 0.273438C935.672 0.37332 937.488 0.52444 938.953 0.837891C939.61 0.978322 940.892 1.28745 942.189 2.0498C943.528 2.8365 946.397 5.1048 946.397 9.29785C946.397 9.62637 946.376 9.88628 946.37 9.96387C946.361 10.0799 946.351 10.1769 946.344 10.2383C946.33 10.3619 946.315 10.4742 946.305 10.5527C946.282 10.7164 946.255 10.9021 946.227 11.0869C946.169 11.465 946.086 11.9766 945.984 12.5986C945.779 13.8497 945.479 15.6352 945.096 17.8867C944.329 22.3944 943.221 28.82 941.856 36.6846C939.809 48.4835 937.179 63.536 934.245 80.2402L931.22 97.4365C922.23 148.453 918.148 171.382 916.478 181.929C916.328 182.876 916.202 183.699 916.097 184.413C918.979 183.791 923.26 182.554 929.648 180.451C967.559 167.975 1005.98 165.329 1033.21 174.549C1043.31 177.969 1056.05 184.99 1064.04 191.583C1087.24 210.718 1099.48 242.045 1096.47 273.141L1096.32 274.621C1095.68 280.321 1087.79 326.722 1078.87 377.387L1061.45 476.429L1029.63 476.767C1018.45 476.885 1011.84 476.919 1008.05 476.716C1006.38 476.626 1004.25 476.462 1002.42 475.802C1001.4 475.433 999.682 474.644 998.287 472.899C996.83 471.078 996.429 469.118 996.385 467.695L996.381 467.418L996.388 467.097C996.399 466.799 996.422 466.58 996.426 466.547C996.439 466.413 996.455 466.292 996.466 466.206C996.489 466.028 996.517 465.833 996.545 465.643C996.603 465.254 996.684 464.739 996.784 464.123C996.986 462.883 997.28 461.128 997.654 458.928C998.404 454.521 999.486 448.263 1000.82 440.623C1003.49 425.339 1007.16 404.485 1011.21 381.75L1016.04 354.524C1025.85 299.147 1025.79 297.734 1025.8 285.493C1025.81 274.297 1025.35 269.749 1024.25 265.515C1020.6 251.492 1013.91 241.993 1005.31 236.432C996.7 230.865 985.2 228.609 970.736 230.956C955.288 233.463 939.036 241.774 925.466 253.449C911.879 265.139 901.653 279.619 897.529 293.785L897.53 293.786C897.548 293.724 897.51 293.855 897.4 294.347C897.304 294.779 897.179 295.364 897.025 296.105C896.72 297.586 896.319 299.604 895.833 302.11C894.862 307.119 893.565 313.995 892.035 322.25C888.976 338.754 884.992 360.714 880.822 384.14C876.649 407.589 872.794 428.972 869.945 444.534C868.521 452.312 867.346 458.649 866.508 463.066C866.089 465.27 865.75 467.022 865.503 468.244C865.381 468.847 865.272 469.368 865.183 469.766C865.141 469.952 865.085 470.193 865.021 470.431C864.994 470.534 864.932 470.761 864.842 471.029C864.8 471.153 864.706 471.425 864.559 471.755C864.55 471.776 864.047 473.018 862.903 474.162C861.889 475.176 860.855 475.659 860.494 475.82C860.017 476.034 859.614 476.159 859.385 476.225C858.923 476.356 858.536 476.424 858.349 476.454C857.939 476.521 857.553 476.558 857.298 476.579C856.745 476.625 856.075 476.658 855.373 476.685C853.937 476.738 851.966 476.777 849.635 476.801C846.123 476.837 841.674 476.841 836.763 476.81L831.714 476.767L797.364 476.398L839.654 237.107C850.833 173.857 861.007 116.328 868.396 74.5947C872.09 53.728 875.088 36.8088 877.166 25.0977C878.205 19.2424 879.015 14.6872 879.566 11.5908C879.842 10.0433 880.054 8.85684 880.198 8.05371C880.27 7.65357 880.327 7.3423 880.366 7.12695C880.385 7.02145 880.403 6.92593 880.417 6.85156C880.423 6.81809 880.433 6.7662 880.443 6.71191C880.448 6.69015 880.46 6.62935 880.477 6.55469C880.486 6.51138 880.513 6.39593 880.53 6.32324C880.571 6.16726 880.8 5.45342 881.026 4.9082L881.234 4.48828C882.314 2.46095 883.931 1.52937 884.315 1.30859C884.973 0.931232 885.539 0.732719 885.794 0.648438C886.335 0.469457 886.779 0.3883 886.924 0.362305C887.284 0.297893 887.585 0.268919 887.693 0.258789C887.969 0.233062 888.247 0.218561 888.449 0.208984C888.89 0.188112 889.467 0.170587 890.125 0.155273C891.461 0.124179 893.351 0.0970223 895.638 0.0742188C900.222 0.0285067 906.512 5.01463e-07 913.403 0ZM517.729 203.645C516.551 210.299 515.478 216.482 514.699 221.08C514.309 223.382 513.996 225.27 513.78 226.616C513.672 227.293 513.593 227.807 513.542 228.158C513.524 228.28 513.512 228.367 513.504 228.425C513.166 232.898 509.703 234.975 508.394 235.583C506.931 236.263 505.435 236.515 504.495 236.643C502.436 236.922 499.653 237 496.322 237C482.543 237 472.344 240.307 457.258 250.453C447.006 257.348 439.733 263.918 434.137 271.417C428.542 278.913 424.346 287.71 420.717 299.406C420.137 301.276 418.048 311.481 414.964 327.836C411.948 343.829 408.101 365.015 404.03 388.168C400.102 410.511 396.472 430.887 393.787 445.718C392.445 453.13 391.337 459.171 390.545 463.384C390.15 465.485 389.828 467.158 389.594 468.327C389.478 468.903 389.375 469.405 389.288 469.791C389.248 469.971 389.192 470.21 389.129 470.447C389.101 470.551 389.039 470.781 388.946 471.053C388.903 471.179 388.808 471.452 388.659 471.783C388.648 471.809 388.15 473.029 387.021 474.162L387.002 474.182C385.973 475.207 384.922 475.689 384.567 475.846C384.091 476.056 383.688 476.179 383.462 476.243C383.004 476.372 382.62 476.437 382.436 476.467C382.031 476.531 381.649 476.567 381.396 476.588C380.846 476.633 380.179 476.666 379.479 476.691C378.046 476.744 376.078 476.781 373.748 476.804C369.069 476.85 362.724 476.841 355.834 476.767L321.479 476.398L348.341 325.102C362.178 247.173 373.592 182.902 373.657 182.594L373.724 182.302C374.465 179.334 376.587 177.895 377.079 177.57C377.855 177.058 378.543 176.802 378.817 176.704C379.424 176.489 379.925 176.397 380.068 176.37C380.448 176.3 380.766 176.27 380.872 176.26C381.152 176.233 381.434 176.219 381.636 176.209C382.078 176.188 382.66 176.171 383.324 176.155C384.673 176.124 386.586 176.097 388.904 176.074C393.552 176.029 399.936 176 406.939 176H442.801L438.641 191.344C438.246 192.799 437.747 195.517 437.355 198.322C438.907 197.341 440.676 196.211 442.698 194.913L444.506 193.762C463.101 182.021 479.158 174.97 495.573 171.707C499.656 170.896 505.525 170.159 508.927 170.096L523.717 169.821L517.729 203.645ZM209.579 179.85C199.645 177.562 173.18 176.567 162.091 178.065C151.955 179.434 135.398 183.699 125.587 187.469C67.5199 209.781 23.4859 260.863 10.4771 321C7.4159 335.154 7.13597 365.861 9.95026 379C18.0422 416.794 39.4359 445.877 71.133 462.176C88.6466 471.181 105.715 475.091 127.678 475.127C166.821 475.192 197.04 462.975 241.475 429.12L244.88 426.527L243.787 469H269.204C288.67 469 294.709 468.707 294.998 467.75C295.462 466.213 298.408 352.215 299.205 305C299.743 273.105 299.637 269.782 297.801 260.99C289.443 220.959 256.493 190.654 209.579 179.85ZM705.456 184.375C688.396 179.401 666.424 177.785 647.986 180.148C632.578 182.122 612.233 188.566 596.69 196.396C579.558 205.025 565.769 214.883 551.098 228.988C523.797 255.238 506.202 285.966 498.323 321.156C496.289 330.246 496.015 334.046 496.069 352.5C496.126 371.919 496.328 374.232 498.753 383.221C504.813 405.674 513.571 421.609 528.446 437.233C553.024 463.051 585.526 475.462 623.883 473.677C699.101 470.176 769.187 408.837 785.466 332.261C788.485 318.057 789.156 295.712 787.003 281C780.089 233.736 749.193 197.126 705.456 184.375ZM1334.3 184.375C1317.24 179.401 1295.27 177.785 1276.83 180.148C1261.42 182.122 1241.08 188.566 1225.53 196.396C1208.4 205.025 1194.61 214.883 1179.94 228.988C1152.64 255.238 1135.05 285.966 1127.17 321.156C1125.13 330.246 1124.86 334.046 1124.91 352.5C1124.97 371.919 1125.17 374.232 1127.6 383.221C1133.66 405.674 1142.41 421.609 1157.29 437.233C1181.87 463.051 1214.37 475.462 1252.73 473.677C1327.94 470.176 1398.03 408.837 1414.31 332.261C1417.33 318.057 1418 295.712 1415.85 281C1408.93 233.736 1378.04 197.126 1334.3 184.375ZM1611.6 177.16C1605.62 177.248 1599.16 177.479 1597.23 177.673C1589.44 178.459 1575.44 181.305 1566.37 183.949C1540.18 191.577 1519.9 202.866 1502.3 219.617C1491.63 229.776 1484.82 238.525 1479.19 249.3C1470.97 265.016 1472.67 256.971 1449.42 390L1435.7 468.5L1460.63 468.767C1474.34 468.915 1485.8 468.795 1486.09 468.502C1486.39 468.191 1493.27 430.502 1501.38 384.734C1509.49 338.956 1516.84 298.194 1517.7 294.151C1522.77 270.587 1541.01 248.606 1565.79 236.206C1580.94 228.624 1596.9 225.466 1611.91 227.076C1626.48 228.64 1635.62 232.702 1645.6 242.04C1650.73 246.838 1653.01 250.011 1656.58 257.299C1662.13 268.643 1663.63 275.488 1663.54 289C1663.47 297.894 1661.22 312.116 1648.83 382C1640.78 427.375 1633.97 465.512 1633.69 466.75L1633.19 469H1684.77L1702.03 370.25C1720.89 262.317 1721.03 261.189 1717.27 245.5C1713.79 231.002 1708.72 221.823 1697.77 210.217C1677.96 189.204 1645.27 176.664 1611.6 177.16ZM913.404 8C899.659 8 888.36 8.11302 888.295 8.25C888.232 8.387 869.888 112 847.532 238.5L806.884 468.5L831.8 468.767C845.501 468.915 856.951 468.797 857.246 468.506C857.536 468.215 864.602 429.619 872.946 382.738C881.291 335.857 888.897 294.824 889.848 291.552C899.173 259.513 935.053 228.642 969.454 223.059C1001.33 217.886 1023.93 232.498 1031.99 263.5C1033.37 268.779 1033.81 274.188 1033.8 285.5C1033.79 300.384 1033.68 301.139 1019.09 383.151C1011 428.609 1004.38 466.529 1004.38 467.418C1004.38 468.871 1006.93 469.007 1029.55 468.767L1054.72 468.5L1070.99 376C1079.95 325.126 1087.76 279.105 1088.37 273.729C1091.63 244.65 1080.29 215.357 1058.95 197.754C1051.74 191.805 1039.86 185.247 1030.65 182.126C1005.68 173.672 969.166 175.868 932.149 188.05C915.327 193.586 910.118 194.199 908.328 190.856C906.925 188.234 905.388 197.939 923.341 96.048C931.622 49.05 938.397 10.012 938.397 9.298C938.397 8.269 933.227 8 913.404 8ZM509.076 178.094C506.287 178.146 500.913 178.803 497.133 179.554C481.479 182.665 465.859 189.551 447.02 201.645C428.101 213.791 427.918 213.796 428.865 202.225C429.212 197.976 430.136 192.137 430.919 189.25L432.343 184H406.939C392.968 184 381.512 184.113 381.483 184.25C381.454 184.389 370.085 248.401 356.218 326.5L331.006 468.5L355.921 468.767C369.623 468.915 381.069 468.801 381.354 468.516C381.642 468.213 388.3 431.439 396.151 386.783C404.3 340.431 411.565 301.907 413.077 297.035C420.707 272.445 431.27 258.291 452.794 243.815C468.888 232.991 480.614 229 496.322 229C502.988 229 505.512 228.657 505.532 227.75C505.546 227.063 507.491 215.588 509.851 202.25L514.144 178L509.076 178.094ZM153.698 226.49C163.675 224.236 189.933 225.108 199.082 227.996C225.009 236.18 242.898 254.589 251.264 281.693C253.803 289.919 253.98 291.687 253.948 308.5C253.919 323.677 253.582 327.707 251.796 334.198C240 377.065 207.058 411.047 165.09 423.642C156.914 426.096 154.543 426.349 139.097 426.421C125.481 426.484 120.71 426.129 115.103 424.632C99.9988 420.601 85.8893 412.39 76.3397 402.072C42.7181 365.747 49.4714 303.225 91.5849 260.94C109.036 243.419 129.845 231.877 153.698 226.49ZM641.097 228.554C650.644 226.656 673.297 226.644 681.461 228.532C719.144 237.247 742.446 267.934 742.446 308.847C742.446 338.53 730.141 367.13 707.549 389.956C696.37 401.251 687.489 407.742 673.963 414.505C660.746 421.113 648.222 424.817 635.683 425.827C597.527 428.899 566.179 412.417 551.377 381.5C542.083 362.089 540.612 339.886 547.05 316.217C558.755 273.184 597.297 237.259 641.097 228.554ZM1269.94 228.554C1279.49 226.656 1302.14 226.644 1310.3 228.532C1347.99 237.247 1371.29 267.934 1371.29 308.847C1371.29 338.53 1358.98 367.13 1336.39 389.956C1325.21 401.251 1316.33 407.742 1302.81 414.505C1289.59 421.113 1277.06 424.817 1264.53 425.827C1226.37 428.899 1195.02 412.417 1180.22 381.5C1170.93 362.089 1169.45 339.886 1175.89 316.217C1187.6 273.184 1226.14 237.259 1269.94 228.554ZM176.436 233.311C167.563 233.016 159.381 233.407 155.461 234.293C133.106 239.342 113.645 250.127 97.2529 266.586L97.2519 266.585C57.1935 306.807 52.3588 364.385 82.2109 396.638C90.6207 405.724 103.353 413.216 117.166 416.902C121.641 418.097 125.459 418.484 139.06 418.421C146.875 418.384 150.905 418.297 153.97 417.97C156.783 417.669 158.867 417.157 162.791 415.979C202.074 404.19 233.005 372.334 244.083 332.075L244.347 331.091C245.604 326.27 245.921 322.667 245.948 308.484C245.964 299.944 245.919 295.753 245.61 292.674C245.334 289.916 244.848 288.031 243.62 284.053C236.108 259.715 220.468 243.492 197.761 235.977L196.674 235.625C193.239 234.541 185.359 233.607 176.436 233.311ZM661.802 235.123C654.531 235.127 647.564 235.551 643.442 236.256L642.656 236.4C601.828 244.515 565.677 278.218 554.77 318.316C548.76 340.409 550.244 360.606 558.593 378.045C571.758 405.543 599.685 420.699 635.041 417.853C646.396 416.938 657.928 413.578 670.386 407.35L671.563 406.755C683.604 400.619 691.598 394.699 701.863 384.328L702.852 383.318C723.458 362.033 734.446 335.811 734.446 308.847C734.446 271.642 713.749 244.56 680.448 236.513L679.659 236.326C676.546 235.606 669.647 235.119 661.802 235.123ZM1290.64 235.123C1283.37 235.127 1276.41 235.551 1272.29 236.256L1271.5 236.4C1230.67 244.515 1194.52 278.218 1183.61 318.316C1177.6 340.409 1179.09 360.606 1187.44 378.045C1200.6 405.543 1228.53 420.699 1263.88 417.853L1264.95 417.76C1275.96 416.725 1287.16 413.383 1299.23 407.35L1300.41 406.755C1312.45 400.619 1320.44 394.699 1330.71 384.328C1351.95 362.865 1363.29 336.239 1363.29 308.847C1363.29 271.642 1342.59 244.56 1309.29 236.513L1308.5 236.326C1305.39 235.606 1298.49 235.119 1290.64 235.123Z" fill="white"/>
</svg>
